<svg viewBox="0 0 400 400" xmlns="http://www.w3.org/2000/svg">
  <circle cx="200" cy="200" r="195" fill="#FCF9F2" stroke="#FF5A3D" stroke-width="10"/>

  <g fill="#F4B942">
    <polygon points="80,40 85,55 102,55 90,65 95,80 80,70 65,80 70,65 58,55 75,55" />
    <polygon points="330,60 333,70 345,70 336,76 339,86 330,80 321,86 324,76 315,70 327,70" />
    <polygon points="60,340 67,360 90,360 72,372 79,392 60,380 41,392 48,372 30,360 53,360" />
  </g>

  <circle cx="340" cy="300" r="25" fill="#06D6A0" opacity="0.7"/>
  <circle cx="70" cy="260" r="35" fill="#FF5A3D" opacity="0.5"/>
  <circle cx="300" cy="100" r="20" fill="#2B59C3" opacity="0.6"/>

  <path d="M 40 130 Q 65 120 90 130 T 140 130" stroke="#FF5A3D" stroke-width="5" fill="none" stroke-linecap="round"/>
  <path d="M 280 340 Q 310 330 340 340" stroke="#06D6A0" stroke-width="4" fill="none" stroke-linecap="round"/>

  <text x="200" y="280" font-family="Noto Sans Devanagari, FreeSans, sans-serif" font-size="280" font-weight="900" text-anchor="middle" fill="none" stroke="#2B59C3" stroke-width="10" opacity="0.7">सु</text>
  <text x="200" y="280" font-family="Noto Sans Devanagari, FreeSans, sans-serif" font-size="280" font-weight="900" text-anchor="middle" fill="#FF5A3D">सु</text>

  <circle cx="130" cy="80" r="15" fill="none" stroke="#2B59C3" stroke-width="3"/>
  <circle cx="140" cy="85" r="8" fill="#06D6A0" opacity="0.7"/>

  <rect x="310" y="160" width="30" height="30" fill="#F4B942" opacity="0.6" transform="rotate(25 325 175)"/>

  <circle cx="100" cy="180" r="6" fill="#FF5A3D"/>
  <circle cx="310" cy="260" r="5" fill="#06D6A0"/>
  <circle cx="200" cy="360" r="7" fill="#F4B942"/>
</svg>
